<svg id="svg" version="1.1" width="400" height="266.6666666666667" viewBox="0 0 400 266.6666666666667" xmlns="http://www.w3.org/2000/svg" xmlns:xlink="http://www.w3.org/1999/xlink"><g id="svgg"><path id="path0" d="M376.667 83.107 C 376.032 83.251,370.929 84.187,368.667 84.575 C 367.787 84.726,366.647 84.950,366.133 85.073 C 365.620 85.195,364.120 85.492,362.800 85.731 C 361.480 85.971,359.920 86.271,359.333 86.398 C 358.747 86.526,357.367 86.821,356.267 87.056 C 355.167 87.290,353.007 87.775,351.467 88.134 C 349.927 88.492,347.287 89.026,345.600 89.319 C 342.387 89.877,338.121 90.747,336.533 91.168 C 336.020 91.304,334.640 91.620,333.467 91.870 C 332.293 92.121,331.093 92.432,330.800 92.562 C 330.507 92.692,329.487 92.918,328.533 93.063 C 327.580 93.208,326.320 93.437,325.733 93.571 C 325.147 93.706,323.947 93.951,323.067 94.116 C 322.187 94.281,321.167 94.554,320.800 94.722 C 320.433 94.890,319.533 95.096,318.800 95.180 L 317.467 95.333 317.247 97.200 C 317.127 98.227,316.887 100.027,316.714 101.200 L 316.400 103.333 309.067 103.333 C 299.501 103.333,297.247 103.689,293.508 105.791 C 292.650 106.272,291.861 106.667,291.754 106.667 C 291.647 106.667,291.278 106.967,290.933 107.333 C 290.589 107.700,290.131 108.000,289.917 108.000 C 288.588 108.000,278.933 117.816,278.933 119.166 C 278.933 119.307,278.827 119.462,278.698 119.511 C 278.249 119.681,275.567 123.652,274.981 125.016 C 274.656 125.770,274.033 126.917,273.595 127.565 C 273.158 128.214,272.800 128.877,272.800 129.039 C 272.800 129.201,272.710 129.334,272.600 129.334 C 272.279 129.336,271.404 131.684,271.604 132.007 C 271.897 132.481,272.800 131.482,272.800 130.685 C 272.800 129.982,273.287 129.113,274.184 128.216 C 274.449 127.951,274.667 127.577,274.667 127.386 C 274.667 127.194,275.101 126.624,275.631 126.119 C 276.162 125.614,276.732 124.900,276.898 124.532 C 277.623 122.929,280.170 119.437,280.716 119.299 C 281.036 119.218,281.410 118.832,281.546 118.441 C 281.682 118.051,282.449 117.072,283.252 116.266 C 284.054 115.460,284.928 114.464,285.194 114.054 C 285.680 113.304,287.112 112.533,288.019 112.533 C 288.628 112.533,289.732 111.525,289.977 110.747 C 290.169 110.133,291.003 109.714,291.465 109.999 C 291.613 110.090,291.851 109.858,291.994 109.483 C 292.173 109.011,292.452 108.800,292.895 108.800 C 293.318 108.800,293.785 108.474,294.266 107.844 C 294.790 107.157,295.076 106.970,295.284 107.177 C 295.691 107.585,296.943 107.537,297.305 107.101 C 297.931 106.347,306.170 105.570,308.393 106.056 C 309.554 106.310,312.917 106.008,313.678 105.582 C 314.226 105.275,314.667 105.463,314.667 106.004 C 314.667 106.218,315.063 106.450,315.600 106.551 C 316.609 106.740,316.747 107.257,316.594 110.267 C 316.532 111.488,317.230 114.045,317.813 114.728 C 318.164 115.139,318.152 115.209,317.703 115.378 C 317.426 115.482,316.420 116.128,315.467 116.813 C 314.513 117.498,313.133 118.389,312.400 118.793 C 311.667 119.196,310.093 120.173,308.904 120.963 C 307.714 121.753,306.664 122.400,306.571 122.400 C 306.478 122.400,305.831 122.806,305.134 123.302 C 304.437 123.798,303.267 124.505,302.533 124.873 C 301.800 125.241,300.964 125.803,300.677 126.121 C 300.389 126.440,299.591 126.943,298.903 127.239 C 297.580 127.808,296.312 128.935,296.634 129.256 C 296.739 129.362,297.030 129.299,297.279 129.116 C 297.991 128.596,301.014 127.200,301.428 127.200 C 301.633 127.200,301.951 127.020,302.133 126.800 C 302.316 126.580,302.601 126.397,302.766 126.393 C 302.931 126.389,303.539 126.028,304.117 125.591 C 304.774 125.094,305.349 124.854,305.652 124.950 C 305.955 125.046,306.197 124.944,306.299 124.678 C 306.389 124.444,307.090 123.956,307.856 123.593 C 308.623 123.231,309.452 122.711,309.699 122.438 C 310.063 122.035,310.351 121.978,311.215 122.136 C 312.250 122.325,313.333 121.628,313.333 120.772 C 313.333 120.650,313.528 120.625,313.766 120.716 C 314.030 120.817,314.299 120.704,314.455 120.426 C 314.595 120.176,315.000 119.860,315.355 119.725 C 315.710 119.590,316.000 119.284,316.000 119.044 C 316.000 118.717,316.160 118.649,316.644 118.771 C 317.112 118.888,317.675 118.677,318.705 117.999 C 319.484 117.486,320.269 117.067,320.450 117.067 C 320.631 117.067,321.053 116.781,321.389 116.431 C 321.725 116.082,322.720 115.407,323.600 114.933 C 325.343 113.993,326.933 112.632,326.933 112.081 C 326.933 111.651,327.260 111.633,327.666 112.040 C 327.897 112.270,328.157 112.224,328.720 111.851 C 329.131 111.579,330.015 111.082,330.685 110.745 C 331.355 110.409,332.375 109.732,332.952 109.241 C 333.528 108.750,334.480 108.127,335.067 107.856 C 335.653 107.586,336.578 107.089,337.122 106.753 C 338.035 106.188,339.286 105.771,341.145 105.413 C 342.563 105.140,345.867 107.029,345.867 108.114 C 345.867 108.327,345.979 108.571,346.116 108.656 C 347.146 109.292,348.825 114.690,348.299 115.673 C 348.135 115.980,347.999 116.629,347.998 117.116 C 347.996 117.852,347.640 118.380,345.872 120.267 C 344.704 121.513,343.745 122.623,343.741 122.733 C 343.737 122.843,343.497 122.933,343.208 122.933 C 342.919 122.933,342.416 123.293,342.091 123.733 C 341.766 124.173,341.364 124.533,341.198 124.533 C 341.032 124.533,340.424 124.933,339.848 125.422 C 339.272 125.911,338.595 126.423,338.344 126.560 C 338.093 126.698,337.313 127.353,336.610 128.018 C 335.908 128.683,334.913 129.511,334.400 129.859 C 333.887 130.207,332.567 131.283,331.467 132.251 C 330.367 133.218,328.687 134.667,327.733 135.470 C 326.780 136.273,325.903 137.082,325.785 137.268 C 325.395 137.882,324.247 138.933,323.967 138.933 C 323.637 138.933,322.622 139.946,321.228 141.667 C 320.550 142.504,319.997 142.933,319.598 142.933 C 319.247 142.933,318.503 143.410,317.826 144.067 C 317.184 144.690,316.315 145.440,315.895 145.733 C 315.089 146.297,312.639 148.460,311.485 149.627 C 307.705 153.452,306.064 155.542,304.558 158.452 C 303.994 159.544,303.405 160.669,303.251 160.952 C 303.096 161.235,302.590 162.427,302.126 163.600 C 301.662 164.773,301.008 166.213,300.671 166.800 C 300.335 167.387,299.732 168.467,299.331 169.200 C 298.931 169.933,298.017 171.346,297.301 172.339 C 296.586 173.332,296.000 174.245,296.000 174.368 C 296.000 174.711,293.035 177.656,291.993 178.348 C 291.483 178.687,290.167 179.595,289.067 180.367 C 286.720 182.014,284.754 182.895,282.689 183.224 C 281.870 183.354,280.847 183.541,280.415 183.638 L 279.630 183.815 280.508 182.908 C 281.734 181.639,283.558 178.786,284.155 177.200 C 284.755 175.609,285.111 133.079,284.534 132.002 C 284.213 131.402,280.736 131.190,280.390 131.749 C 280.294 131.905,280.230 136.375,280.249 141.683 C 280.293 154.673,280.060 156.121,277.503 158.746 C 273.356 163.003,266.275 161.874,263.315 156.484 L 262.537 155.067 262.402 143.333 L 262.267 131.600 260.067 131.523 L 257.867 131.445 257.858 132.456 C 257.712 149.474,257.764 154.905,258.084 156.000 C 260.747 165.115,270.692 168.823,278.831 163.735 C 280.006 163.001,280.137 163.382,280.216 167.768 C 280.350 175.234,279.476 178.010,276.267 180.310 C 272.712 182.858,267.306 182.314,264.256 179.101 C 263.393 178.191,263.011 178.222,261.464 179.322 C 259.661 180.604,259.619 180.769,260.779 182.013 C 265.067 186.610,271.698 187.918,277.085 185.231 C 277.620 184.964,278.669 184.793,279.841 184.781 C 286.248 184.715,290.346 182.713,296.126 176.827 C 298.163 174.753,298.346 174.670,299.091 175.494 C 299.370 175.802,300.379 176.418,301.333 176.862 C 303.022 177.648,303.346 177.707,309.215 178.306 C 310.479 178.435,313.221 177.997,315.067 177.371 C 315.507 177.222,317.127 176.965,318.667 176.800 C 323.555 176.275,328.036 174.713,329.193 173.129 C 329.813 172.280,329.955 168.782,329.393 168.219 C 328.737 167.564,330.202 166.032,332.034 165.458 C 332.614 165.277,334.933 163.813,334.933 163.628 C 334.933 163.585,335.299 162.540,335.746 161.308 C 337.576 156.259,336.425 152.302,332.640 150.627 C 330.929 149.870,331.109 149.596,334.533 147.743 C 340.158 144.701,343.030 138.092,340.595 133.795 L 339.723 132.257 340.462 131.968 C 342.395 131.209,344.275 130.694,345.733 130.522 C 346.613 130.418,348.113 130.166,349.067 129.961 C 350.020 129.757,351.400 129.474,352.133 129.333 C 352.867 129.192,353.947 128.960,354.533 128.817 C 355.120 128.674,356.440 128.368,357.467 128.138 C 358.493 127.908,359.813 127.608,360.400 127.471 C 365.599 126.258,367.594 125.799,369.200 125.446 C 370.227 125.221,371.487 124.931,372.000 124.804 C 372.513 124.676,373.773 124.373,374.800 124.130 C 375.827 123.887,376.967 123.589,377.333 123.469 C 377.700 123.348,379.661 122.860,381.691 122.384 C 385.797 121.420,385.810 121.410,385.389 119.377 C 385.030 117.637,384.333 114.139,383.999 112.400 C 383.404 109.295,383.156 108.262,382.402 105.733 C 381.965 104.267,381.605 102.549,381.603 101.916 C 381.602 101.283,381.480 100.542,381.334 100.269 C 381.188 99.996,381.016 98.654,380.951 97.286 C 380.886 95.919,380.642 93.960,380.409 92.933 C 380.175 91.907,379.735 89.747,379.430 88.133 C 378.449 82.939,378.333 82.729,376.667 83.107 M376.161 86.071 C 376.322 86.179,376.539 86.927,376.643 87.733 C 376.746 88.540,377.005 89.719,377.219 90.353 C 377.432 90.987,377.546 91.604,377.472 91.725 C 377.398 91.845,377.498 92.406,377.695 92.972 C 377.892 93.537,378.130 94.840,378.224 95.867 C 378.379 97.552,378.651 99.021,379.486 102.667 C 379.862 104.311,380.526 107.905,380.693 109.200 C 380.910 110.887,381.626 113.700,381.935 114.078 C 382.090 114.267,382.252 115.136,382.296 116.010 C 382.339 116.883,382.481 117.988,382.612 118.466 C 382.901 119.522,382.767 119.997,382.178 120.008 C 381.933 120.013,381.138 120.308,380.410 120.665 C 379.326 121.196,378.818 121.288,377.610 121.173 C 376.476 121.065,375.792 121.168,374.667 121.613 C 373.860 121.933,372.660 122.286,372.000 122.399 C 370.118 122.721,368.261 123.131,366.667 123.577 C 363.287 124.523,355.657 126.319,354.267 126.496 C 352.818 126.681,350.421 127.224,346.133 128.338 C 339.473 130.070,338.188 129.916,341.091 127.733 C 341.968 127.073,342.832 126.408,343.010 126.254 C 343.188 126.101,344.233 125.306,345.333 124.487 C 348.910 121.825,350.381 119.776,350.958 116.654 C 351.487 113.796,350.184 108.958,348.211 106.455 C 347.667 105.765,346.989 104.895,346.703 104.522 C 344.581 101.749,336.785 102.256,333.987 105.347 C 333.729 105.633,333.353 105.867,333.153 105.867 C 332.953 105.867,332.341 106.149,331.794 106.494 C 331.247 106.840,329.780 107.760,328.533 108.539 C 327.287 109.318,325.101 110.716,323.677 111.645 C 320.236 113.889,319.467 113.622,319.467 110.180 C 319.467 109.771,319.290 109.202,319.075 108.918 C 318.581 108.264,318.563 107.469,319.028 106.793 C 319.420 106.223,319.990 102.252,320.078 99.476 C 320.132 97.797,320.154 97.746,320.933 97.562 C 322.921 97.090,326.686 96.280,328.267 95.983 C 329.220 95.804,330.114 95.555,330.253 95.429 C 330.393 95.303,330.925 95.200,331.436 95.200 C 331.948 95.200,333.154 95.012,334.116 94.783 C 335.079 94.554,336.594 94.194,337.484 93.983 C 338.373 93.772,339.278 93.600,339.494 93.600 C 339.710 93.600,340.361 93.358,340.941 93.063 C 341.521 92.767,342.160 92.589,342.363 92.667 C 342.797 92.833,345.296 92.386,347.733 91.706 C 348.687 91.440,350.007 91.143,350.667 91.045 C 351.327 90.948,352.527 90.657,353.333 90.398 C 354.140 90.140,355.670 89.847,356.734 89.748 C 357.798 89.649,358.998 89.396,359.401 89.185 C 359.804 88.975,360.546 88.803,361.051 88.802 C 362.630 88.799,368.798 87.505,369.807 86.965 C 370.081 86.819,370.776 86.705,371.352 86.712 C 371.929 86.719,372.820 86.542,373.333 86.318 C 374.346 85.876,375.692 85.758,376.161 86.071 M44.988 109.501 C 44.634 109.855,44.764 164.391,45.120 164.747 C 45.522 165.148,48.968 165.176,49.213 164.779 C 49.311 164.621,49.372 159.790,49.349 154.043 C 49.298 141.329,49.450 140.441,52.161 137.691 C 55.439 134.367,61.817 134.452,64.898 137.863 C 67.148 140.353,67.056 139.742,67.149 152.927 C 67.210 161.634,67.313 164.706,67.549 164.856 C 68.426 165.414,71.718 165.086,71.884 164.425 C 72.207 163.141,71.846 141.257,71.486 140.267 C 70.423 137.341,69.209 135.577,66.663 133.255 C 64.126 130.943,57.774 129.867,54.263 131.154 C 52.348 131.856,51.004 132.526,50.646 132.958 C 50.475 133.164,50.106 133.333,49.826 133.333 C 49.334 133.333,49.319 132.968,49.342 121.400 L 49.367 109.467 47.271 109.390 C 46.118 109.348,45.091 109.398,44.988 109.501 M178.315 110.742 C 176.378 113.771,176.304 113.653,180.266 113.856 L 183.067 114.000 183.203 139.467 C 183.279 153.473,183.369 164.963,183.403 165.000 C 183.656 165.266,187.448 165.011,187.696 164.711 C 187.893 164.474,188.015 161.825,188.062 156.778 L 188.133 149.200 193.467 149.046 C 203.947 148.745,210.058 144.757,213.564 135.934 C 216.720 127.990,213.217 117.403,205.867 112.671 C 200.962 109.513,200.034 109.333,188.609 109.333 L 179.216 109.333 178.315 110.742 M197.600 114.147 C 208.405 115.867,213.574 129.058,207.056 138.280 C 203.749 142.959,200.548 144.355,193.067 144.382 L 188.133 144.400 188.064 129.467 C 188.026 121.253,188.052 114.383,188.122 114.200 C 188.284 113.778,195.048 113.740,197.600 114.147 M130.043 118.867 C 129.856 119.563,129.845 121.366,130.023 122.210 L 130.180 122.954 132.357 122.877 L 134.533 122.800 134.611 120.600 L 134.688 118.400 132.429 118.400 C 130.503 118.400,130.151 118.469,130.043 118.867 M117.721 131.164 C 116.275 131.657,114.724 132.524,113.513 133.516 C 112.485 134.358,112.282 134.315,110.558 132.895 C 109.730 132.214,108.985 131.726,108.901 131.810 C 108.782 131.929,108.660 163.324,108.773 164.733 C 108.803 165.107,112.426 165.212,112.987 164.855 C 113.226 164.703,113.327 161.683,113.387 152.926 L 113.467 141.200 114.258 139.772 C 115.964 136.690,118.083 135.428,121.733 135.318 L 124.400 135.237 125.393 133.352 L 126.385 131.468 125.427 131.067 C 124.069 130.500,119.498 130.557,117.721 131.164 M152.267 130.956 C 138.229 134.588,133.589 151.626,144.028 161.209 C 153.763 170.146,168.395 166.466,173.278 153.852 C 178.002 141.646,165.137 127.627,152.267 130.956 M230.313 131.084 C 218.474 134.315,213.229 148.570,220.263 158.400 C 226.586 167.236,238.405 168.697,246.782 161.678 C 247.987 160.668,247.706 160.560,250.685 163.169 C 252.539 164.792,252.639 164.843,252.849 164.275 C 253.003 163.859,252.968 137.291,252.806 132.200 C 252.790 131.673,251.981 132.154,250.400 133.631 C 247.993 135.881,248.000 135.879,246.630 134.832 C 241.642 131.026,235.607 129.639,230.313 131.084 M28.355 131.171 C 19.159 133.554,19.944 145.906,29.467 148.662 C 33.304 149.773,33.697 149.950,34.823 151.075 C 38.019 154.272,36.577 159.630,32.177 160.909 C 29.849 161.586,27.149 160.734,25.853 158.915 C 25.160 157.941,24.980 157.943,23.119 158.951 C 21.207 159.986,21.182 160.037,21.972 161.289 C 27.346 169.801,41.067 165.426,41.067 155.200 C 41.067 149.174,38.245 146.187,30.750 144.280 C 27.863 143.545,26.590 142.191,26.590 139.854 C 26.590 135.761,31.796 133.848,34.176 137.067 C 34.894 138.039,34.883 138.038,37.127 137.158 C 39.167 136.357,39.166 136.359,38.298 134.983 C 36.355 131.905,31.987 130.230,28.355 131.171 M76.978 131.644 C 76.669 131.953,76.773 154.312,77.089 155.682 C 77.709 158.368,78.553 159.858,80.667 161.995 C 85.478 166.862,93.139 167.451,98.267 163.349 C 99.960 161.994,99.886 161.992,101.628 163.448 C 103.405 164.932,103.624 165.023,103.769 164.333 C 103.823 164.077,103.835 156.577,103.796 147.667 L 103.725 131.467 101.473 131.467 L 99.221 131.467 99.144 143.133 L 99.067 154.800 98.315 156.267 C 95.432 161.895,88.581 163.141,84.169 158.841 C 81.389 156.131,81.333 155.807,81.333 142.485 L 81.333 131.467 79.244 131.467 C 78.096 131.467,77.076 131.547,76.978 131.644 M130.054 131.923 C 129.987 132.185,129.918 142.509,129.901 154.865 C 129.871 177.250,129.869 177.334,129.299 178.547 C 127.041 183.350,120.620 184.898,116.318 181.677 C 115.208 180.845,114.667 180.977,112.933 182.504 L 111.600 183.677 112.596 184.617 C 119.482 191.113,131.413 187.801,134.143 178.635 C 134.652 176.925,134.667 176.105,134.602 154.233 L 134.533 131.600 132.355 131.523 C 130.447 131.455,130.161 131.505,130.054 131.923 M337.626 134.044 C 340.028 136.667,339.769 139.900,336.894 143.198 C 336.120 144.085,335.393 144.964,335.277 145.152 C 335.161 145.340,334.467 145.834,333.733 146.249 C 333.000 146.665,332.160 147.208,331.867 147.455 C 331.573 147.702,330.493 148.403,329.467 149.012 C 328.440 149.621,326.842 150.842,325.915 151.726 C 321.409 156.022,318.230 157.333,312.319 157.333 C 310.286 157.333,308.546 157.258,308.454 157.165 C 307.933 156.644,313.338 150.530,315.836 148.813 C 316.386 148.435,324.535 141.641,324.800 141.340 C 324.873 141.256,325.653 140.591,326.533 139.861 C 327.413 139.131,329.033 137.633,330.133 136.533 C 334.129 132.536,335.752 131.997,337.626 134.044 M161.367 136.158 C 167.049 138.419,170.662 145.304,169.197 151.077 C 168.484 153.886,167.682 155.381,165.869 157.287 C 159.058 164.445,146.871 161.956,143.708 152.761 C 139.975 141.904,150.629 131.886,161.367 136.158 M239.333 135.864 C 244.009 137.734,246.687 140.749,247.864 145.467 C 249.473 151.917,245.342 159.021,238.892 160.895 C 237.244 161.374,232.461 161.502,231.413 161.096 C 228.043 159.789,226.515 158.811,224.851 156.897 C 218.734 149.858,221.749 139.158,230.800 135.786 C 232.643 135.100,237.535 135.144,239.333 135.864 M331.169 151.523 C 332.659 152.435,333.006 153.007,333.642 155.600 C 334.027 157.173,333.449 159.971,332.398 161.614 C 331.992 162.251,329.608 163.763,328.257 164.243 C 327.592 164.479,326.872 164.822,326.657 165.005 C 326.301 165.309,323.954 166.556,319.926 168.581 C 319.078 169.007,318.266 169.282,318.121 169.192 C 317.975 169.102,317.469 169.152,316.995 169.304 C 316.232 169.547,312.530 169.960,311.467 169.919 C 311.247 169.911,309.916 170.032,308.510 170.188 C 305.783 170.491,302.759 170.180,302.374 169.558 C 302.156 169.205,302.765 167.558,303.938 165.333 C 304.363 164.527,304.920 163.147,305.175 162.267 C 306.184 158.788,306.945 157.893,308.498 158.358 C 313.705 159.918,322.466 157.810,326.193 154.100 C 329.593 150.715,329.731 150.644,331.169 151.523 M326.933 169.736 C 326.933 171.829,325.118 172.857,319.426 173.985 C 314.723 174.918,314.244 175.034,313.467 175.428 C 312.105 176.119,302.903 175.938,301.866 175.199 C 301.439 174.896,300.735 174.523,300.300 174.372 C 299.148 173.970,299.119 173.516,300.157 172.157 L 301.083 170.944 302.075 171.318 C 303.730 171.941,305.860 172.339,307.574 172.346 C 311.859 172.364,318.471 171.733,319.444 171.212 C 319.730 171.059,320.187 170.933,320.458 170.933 C 320.729 170.933,321.603 170.513,322.400 170.000 C 323.197 169.487,324.100 169.067,324.407 169.067 C 324.714 169.067,325.198 168.890,325.482 168.675 C 326.558 167.862,326.933 168.136,326.933 169.736 " stroke="none" fill="#2e6f71" fill-rule="evenodd"></path><path id="path1" d="M0.000 133.333 L 0.000 266.667 200.000 266.667 L 400.000 266.667 400.000 133.333 L 400.000 0.000 200.000 0.000 L 0.000 0.000 0.000 133.333 M378.571 84.133 C 378.739 84.720,379.125 86.520,379.430 88.133 C 379.735 89.747,380.175 91.907,380.409 92.933 C 380.642 93.960,380.886 95.919,380.951 97.286 C 381.016 98.654,381.188 99.996,381.334 100.269 C 381.480 100.542,381.602 101.283,381.603 101.916 C 381.605 102.549,381.965 104.267,382.402 105.733 C 383.156 108.262,383.404 109.295,383.999 112.400 C 384.333 114.139,385.030 117.637,385.389 119.377 C 385.810 121.410,385.797 121.420,381.691 122.384 C 379.661 122.860,377.700 123.348,377.333 123.469 C 376.967 123.589,375.827 123.887,374.800 124.130 C 373.773 124.373,372.513 124.676,372.000 124.804 C 371.487 124.931,370.227 125.221,369.200 125.446 C 367.594 125.799,365.599 126.258,360.400 127.471 C 359.813 127.608,358.493 127.908,357.467 128.138 C 356.440 128.368,355.120 128.674,354.533 128.817 C 353.947 128.960,352.867 129.192,352.133 129.333 C 351.400 129.474,350.020 129.757,349.067 129.961 C 348.113 130.166,346.613 130.418,345.733 130.522 C 344.275 130.694,342.395 131.209,340.462 131.968 L 339.723 132.257 340.595 133.795 C 343.030 138.092,340.158 144.701,334.533 147.743 C 331.109 149.596,330.929 149.870,332.640 150.627 C 336.425 152.302,337.576 156.259,335.746 161.308 C 335.299 162.540,334.933 163.585,334.933 163.628 C 334.933 163.813,332.614 165.277,332.034 165.458 C 330.202 166.032,328.737 167.564,329.393 168.219 C 329.955 168.782,329.813 172.280,329.193 173.129 C 328.036 174.713,323.555 176.275,318.667 176.800 C 317.127 176.965,315.507 177.222,315.067 177.371 C 313.221 177.997,310.479 178.435,309.215 178.306 C 303.346 177.707,303.022 177.648,301.333 176.862 C 300.379 176.418,299.370 175.802,299.091 175.494 C 298.346 174.670,298.163 174.753,296.126 176.827 C 290.346 182.713,286.248 184.715,279.841 184.781 C 278.669 184.793,277.620 184.964,277.085 185.231 C 271.698 187.918,265.067 186.610,260.779 182.013 C 259.619 180.769,259.661 180.604,261.464 179.322 C 263.011 178.222,263.393 178.191,264.256 179.101 C 267.306 182.314,272.712 182.858,276.267 180.310 C 279.476 178.010,280.350 175.234,280.216 167.768 C 280.137 163.382,280.006 163.001,278.831 163.735 C 270.692 168.823,260.747 165.115,258.084 156.000 C 257.764 154.905,257.712 149.474,257.858 132.456 L 257.867 131.445 260.067 131.523 L 262.267 131.600 262.402 143.333 L 262.537 155.067 263.315 156.484 C 266.275 161.874,273.356 163.003,277.503 158.746 C 280.060 156.121,280.293 154.673,280.249 141.683 C 280.230 136.375,280.294 131.905,280.390 131.749 C 280.736 131.190,284.213 131.402,284.534 132.002 C 285.111 133.079,284.755 175.609,284.155 177.200 C 283.558 178.786,281.734 181.639,280.508 182.908 L 279.630 183.815 280.415 183.638 C 280.847 183.541,281.870 183.354,282.689 183.224 C 284.754 182.895,286.720 182.014,289.067 180.367 C 290.167 179.595,291.483 178.687,291.993 178.348 C 293.035 177.656,296.000 174.711,296.000 174.368 C 296.000 174.245,296.586 173.332,297.301 172.339 C 298.017 171.346,298.931 169.933,299.331 169.200 C 299.732 168.467,300.335 167.387,300.671 166.800 C 301.008 166.213,301.662 164.773,302.126 163.600 C 302.590 162.427,303.096 161.235,303.251 160.952 C 303.405 160.669,303.994 159.544,304.558 158.452 C 306.571 154.563,312.044 148.423,315.895 145.733 C 316.315 145.440,317.184 144.690,317.826 144.067 C 318.503 143.410,319.247 142.933,319.598 142.933 C 319.997 142.933,320.550 142.504,321.228 141.667 C 322.622 139.946,323.637 138.933,323.967 138.933 C 324.247 138.933,325.395 137.882,325.785 137.268 C 325.903 137.082,326.780 136.273,327.733 135.470 C 328.687 134.667,330.367 133.218,331.467 132.251 C 332.567 131.283,333.887 130.207,334.400 129.859 C 334.913 129.511,335.908 128.683,336.610 128.018 C 337.313 127.353,338.093 126.698,338.344 126.560 C 338.595 126.423,339.272 125.911,339.848 125.422 C 340.424 124.933,341.032 124.533,341.198 124.533 C 341.364 124.533,341.766 124.173,342.091 123.733 C 342.416 123.293,342.919 122.933,343.208 122.933 C 343.497 122.933,343.737 122.843,343.741 122.733 C 343.745 122.623,344.704 121.513,345.872 120.267 C 347.640 118.380,347.996 117.852,347.998 117.116 C 347.999 116.629,348.135 115.980,348.299 115.673 C 348.825 114.690,347.146 109.292,346.116 108.656 C 345.979 108.571,345.867 108.327,345.867 108.114 C 345.867 107.029,342.563 105.140,341.145 105.413 C 339.286 105.771,338.035 106.188,337.122 106.753 C 336.578 107.089,335.653 107.586,335.067 107.856 C 334.480 108.127,333.528 108.750,332.952 109.241 C 332.375 109.732,331.355 110.409,330.685 110.745 C 330.015 111.082,329.131 111.579,328.720 111.851 C 328.157 112.224,327.897 112.270,327.666 112.040 C 327.260 111.633,326.933 111.651,326.933 112.081 C 326.933 112.632,325.343 113.993,323.600 114.933 C 322.720 115.407,321.725 116.082,321.389 116.431 C 321.053 116.781,320.631 117.067,320.450 117.067 C 320.269 117.067,319.484 117.486,318.705 117.999 C 317.675 118.677,317.112 118.888,316.644 118.771 C 316.160 118.649,316.000 118.717,316.000 119.044 C 316.000 119.284,315.710 119.590,315.355 119.725 C 315.000 119.860,314.595 120.176,314.455 120.426 C 314.299 120.704,314.030 120.817,313.766 120.716 C 313.528 120.625,313.333 120.650,313.333 120.772 C 313.333 121.628,312.250 122.325,311.215 122.136 C 310.351 121.978,310.063 122.035,309.699 122.438 C 309.452 122.711,308.623 123.231,307.856 123.593 C 307.090 123.956,306.389 124.444,306.299 124.678 C 306.197 124.944,305.955 125.046,305.652 124.950 C 305.349 124.854,304.774 125.094,304.117 125.591 C 303.539 126.028,302.931 126.389,302.766 126.393 C 302.601 126.397,302.316 126.580,302.133 126.800 C 301.951 127.020,301.633 127.200,301.428 127.200 C 301.014 127.200,297.991 128.596,297.279 129.116 C 297.030 129.299,296.739 129.362,296.634 129.256 C 296.312 128.935,297.580 127.808,298.903 127.239 C 299.591 126.943,300.389 126.440,300.677 126.121 C 300.964 125.803,301.800 125.241,302.533 124.873 C 303.267 124.505,304.437 123.798,305.134 123.302 C 305.831 122.806,306.478 122.400,306.571 122.400 C 306.664 122.400,307.714 121.753,308.904 120.963 C 310.093 120.173,311.667 119.196,312.400 118.793 C 313.133 118.389,314.513 117.498,315.467 116.813 C 316.420 116.128,317.426 115.482,317.703 115.378 C 318.152 115.209,318.164 115.139,317.813 114.728 C 317.230 114.045,316.532 111.488,316.594 110.267 C 316.747 107.257,316.609 106.740,315.600 106.551 C 315.063 106.450,314.667 106.218,314.667 106.004 C 314.667 105.463,314.226 105.275,313.678 105.582 C 312.917 106.008,309.554 106.310,308.393 106.056 C 306.170 105.570,297.931 106.347,297.305 107.101 C 296.943 107.537,295.691 107.585,295.284 107.177 C 295.076 106.970,294.790 107.157,294.266 107.844 C 293.785 108.474,293.318 108.800,292.895 108.800 C 292.452 108.800,292.173 109.011,291.994 109.483 C 291.851 109.858,291.613 110.090,291.465 109.999 C 291.003 109.714,290.169 110.133,289.977 110.747 C 289.732 111.525,288.628 112.533,288.019 112.533 C 287.112 112.533,285.680 113.304,285.194 114.054 C 284.928 114.464,284.054 115.460,283.252 116.266 C 282.449 117.072,281.682 118.051,281.546 118.441 C 281.410 118.832,281.036 119.218,280.716 119.299 C 280.170 119.437,277.623 122.929,276.898 124.532 C 276.732 124.900,276.162 125.614,275.631 126.119 C 275.101 126.624,274.667 127.194,274.667 127.386 C 274.667 127.577,274.449 127.951,274.184 128.216 C 273.287 129.113,272.800 129.982,272.800 130.685 C 272.800 131.482,271.897 132.481,271.604 132.007 C 271.404 131.684,272.279 129.336,272.600 129.334 C 272.710 129.334,272.800 129.201,272.800 129.039 C 272.800 128.877,273.158 128.214,273.595 127.565 C 274.033 126.917,274.656 125.770,274.981 125.016 C 275.567 123.652,278.249 119.681,278.698 119.511 C 278.827 119.462,278.933 119.307,278.933 119.166 C 278.933 117.816,288.588 108.000,289.917 108.000 C 290.131 108.000,290.589 107.700,290.933 107.333 C 291.278 106.967,291.647 106.667,291.754 106.667 C 291.861 106.667,292.650 106.272,293.508 105.791 C 297.247 103.689,299.501 103.333,309.067 103.333 L 316.400 103.333 316.714 101.200 C 316.887 100.027,317.127 98.227,317.247 97.200 L 317.467 95.333 318.800 95.180 C 319.533 95.096,320.433 94.890,320.800 94.722 C 321.167 94.554,322.187 94.281,323.067 94.116 C 323.947 93.951,325.147 93.706,325.733 93.571 C 326.320 93.437,327.580 93.208,328.533 93.063 C 329.487 92.918,330.507 92.692,330.800 92.562 C 331.093 92.432,332.293 92.121,333.467 91.870 C 334.640 91.620,336.020 91.304,336.533 91.168 C 338.121 90.747,342.387 89.877,345.600 89.319 C 347.287 89.026,349.927 88.492,351.467 88.134 C 353.007 87.775,355.167 87.290,356.267 87.056 C 357.367 86.821,358.747 86.526,359.333 86.398 C 359.920 86.271,361.480 85.971,362.800 85.731 C 364.120 85.492,365.620 85.195,366.133 85.073 C 366.647 84.950,367.787 84.726,368.667 84.575 C 370.929 84.187,376.032 83.251,376.667 83.107 C 377.871 82.834,378.260 83.044,378.571 84.133 M373.333 86.318 C 372.820 86.542,371.929 86.719,371.352 86.712 C 370.776 86.705,370.081 86.819,369.807 86.965 C 368.798 87.505,362.630 88.799,361.051 88.802 C 360.546 88.803,359.804 88.975,359.401 89.185 C 358.998 89.396,357.798 89.649,356.734 89.748 C 355.670 89.847,354.140 90.140,353.333 90.398 C 352.527 90.657,351.327 90.948,350.667 91.045 C 350.007 91.143,348.687 91.440,347.733 91.706 C 345.296 92.386,342.797 92.833,342.363 92.667 C 342.160 92.589,341.521 92.767,340.941 93.063 C 340.361 93.358,339.710 93.600,339.494 93.600 C 339.278 93.600,338.373 93.772,337.484 93.983 C 336.594 94.194,335.079 94.554,334.116 94.783 C 333.154 95.012,331.948 95.200,331.436 95.200 C 330.925 95.200,330.393 95.303,330.253 95.429 C 330.114 95.555,329.220 95.804,328.267 95.983 C 326.686 96.280,322.921 97.090,320.933 97.562 C 320.154 97.746,320.132 97.797,320.078 99.476 C 319.990 102.252,319.420 106.223,319.028 106.793 C 318.563 107.469,318.581 108.264,319.075 108.918 C 319.290 109.202,319.467 109.771,319.467 110.180 C 319.467 113.622,320.236 113.889,323.677 111.645 C 325.101 110.716,327.287 109.318,328.533 108.539 C 329.780 107.760,331.247 106.840,331.794 106.494 C 332.341 106.149,332.953 105.867,333.153 105.867 C 333.353 105.867,333.729 105.633,333.987 105.347 C 336.785 102.256,344.581 101.749,346.703 104.522 C 346.989 104.895,347.667 105.765,348.211 106.455 C 350.184 108.958,351.487 113.796,350.958 116.654 C 350.381 119.776,348.910 121.825,345.333 124.487 C 344.233 125.306,343.188 126.101,343.010 126.254 C 342.832 126.408,341.968 127.073,341.091 127.733 C 338.188 129.916,339.473 130.070,346.133 128.338 C 350.421 127.224,352.818 126.681,354.267 126.496 C 355.657 126.319,363.287 124.523,366.667 123.577 C 368.261 123.131,370.118 122.721,372.000 122.399 C 372.660 122.286,373.860 121.933,374.667 121.613 C 375.792 121.168,376.476 121.065,377.610 121.173 C 378.818 121.288,379.326 121.196,380.410 120.665 C 381.138 120.308,381.933 120.013,382.178 120.008 C 382.767 119.997,382.901 119.522,382.612 118.466 C 382.481 117.988,382.339 116.883,382.296 116.010 C 382.252 115.136,382.090 114.267,381.935 114.078 C 381.626 113.700,380.910 110.887,380.693 109.200 C 380.526 107.905,379.862 104.311,379.486 102.667 C 378.651 99.021,378.379 97.552,378.224 95.867 C 378.130 94.840,377.892 93.537,377.695 92.972 C 377.498 92.406,377.398 91.845,377.472 91.725 C 377.546 91.604,377.432 90.987,377.219 90.353 C 377.005 89.719,376.746 88.540,376.643 87.733 C 376.388 85.748,375.504 85.370,373.333 86.318 M49.342 121.400 C 49.319 132.968,49.334 133.333,49.826 133.333 C 50.106 133.333,50.475 133.164,50.646 132.958 C 53.258 129.811,63.084 129.993,66.663 133.255 C 69.209 135.577,70.423 137.341,71.486 140.267 C 71.846 141.257,72.207 163.141,71.884 164.425 C 71.718 165.086,68.426 165.414,67.549 164.856 C 67.313 164.706,67.210 161.634,67.149 152.927 C 67.056 139.742,67.148 140.353,64.898 137.863 C 61.817 134.452,55.439 134.367,52.161 137.691 C 49.450 140.441,49.298 141.329,49.349 154.043 C 49.372 159.790,49.311 164.621,49.213 164.779 C 48.968 165.176,45.522 165.148,45.120 164.747 C 44.764 164.391,44.634 109.855,44.988 109.501 C 45.091 109.398,46.118 109.348,47.271 109.390 L 49.367 109.467 49.342 121.400 M199.826 109.855 C 215.790 114.420,219.926 134.450,207.057 144.881 C 203.235 147.979,200.405 148.847,193.467 149.046 L 188.133 149.200 188.062 156.778 C 188.015 161.825,187.893 164.474,187.696 164.711 C 187.448 165.011,183.656 165.266,183.403 165.000 C 183.369 164.963,183.279 153.473,183.203 139.467 L 183.067 114.000 180.266 113.856 C 176.304 113.653,176.378 113.771,178.315 110.742 L 179.216 109.333 188.609 109.333 C 197.132 109.333,198.171 109.382,199.826 109.855 M188.122 114.200 C 188.052 114.383,188.026 121.253,188.064 129.467 L 188.133 144.400 193.067 144.382 C 200.548 144.355,203.749 142.959,207.056 138.280 C 213.574 129.058,208.405 115.867,197.600 114.147 C 195.048 113.740,188.284 113.778,188.122 114.200 M134.611 120.600 L 134.533 122.800 132.357 122.877 L 130.180 122.954 130.023 122.210 C 129.845 121.366,129.856 119.563,130.043 118.867 C 130.151 118.469,130.503 118.400,132.429 118.400 L 134.688 118.400 134.611 120.600 M125.427 131.067 L 126.385 131.468 125.393 133.352 L 124.400 135.237 121.733 135.318 C 118.083 135.428,115.964 136.690,114.258 139.772 L 113.467 141.200 113.387 152.926 C 113.327 161.683,113.226 164.703,112.987 164.855 C 112.426 165.212,108.803 165.107,108.773 164.733 C 108.660 163.324,108.782 131.929,108.901 131.810 C 108.985 131.726,109.730 132.214,110.558 132.895 C 112.282 134.315,112.485 134.358,113.513 133.516 C 116.649 130.947,122.340 129.778,125.427 131.067 M161.600 131.375 C 170.945 134.305,176.617 145.224,173.278 153.852 C 168.395 166.466,153.763 170.146,144.028 161.209 C 133.589 151.626,138.229 134.588,152.267 130.956 C 154.402 130.404,159.187 130.618,161.600 131.375 M239.254 131.046 C 242.185 131.832,243.754 132.637,246.630 134.832 C 248.000 135.879,247.993 135.881,250.400 133.631 C 251.981 132.154,252.790 131.673,252.806 132.200 C 252.968 137.291,253.003 163.859,252.849 164.275 C 252.639 164.843,252.539 164.792,250.685 163.169 C 247.706 160.560,247.987 160.668,246.782 161.678 C 234.802 171.716,217.337 163.790,217.231 148.267 C 217.153 136.776,228.254 128.095,239.254 131.046 M34.642 131.721 C 36.482 132.659,38.933 135.229,38.933 136.219 C 38.933 136.446,35.579 137.867,35.044 137.867 C 34.891 137.867,34.501 137.507,34.176 137.067 C 31.796 133.848,26.590 135.761,26.590 139.854 C 26.590 142.191,27.863 143.545,30.750 144.280 C 38.245 146.187,41.067 149.174,41.067 155.200 C 41.067 165.426,27.346 169.801,21.972 161.289 C 21.182 160.037,21.207 159.986,23.119 158.951 C 24.980 157.943,25.160 157.941,25.853 158.915 C 27.149 160.734,29.849 161.586,32.177 160.909 C 36.577 159.630,38.019 154.272,34.823 151.075 C 33.697 149.950,33.304 149.773,29.467 148.662 C 20.877 146.176,19.015 136.369,26.319 132.088 C 28.553 130.779,32.458 130.607,34.642 131.721 M81.333 142.485 C 81.333 155.807,81.389 156.131,84.169 158.841 C 88.581 163.141,95.432 161.895,98.315 156.267 L 99.067 154.800 99.144 143.133 L 99.221 131.467 101.473 131.467 L 103.725 131.467 103.796 147.667 C 103.835 156.577,103.823 164.077,103.769 164.333 C 103.624 165.023,103.405 164.932,101.628 163.448 C 99.886 161.992,99.960 161.994,98.267 163.349 C 93.139 167.451,85.478 166.862,80.667 161.995 C 78.553 159.858,77.709 158.368,77.089 155.682 C 76.773 154.312,76.669 131.953,76.978 131.644 C 77.076 131.547,78.096 131.467,79.244 131.467 L 81.333 131.467 81.333 142.485 M134.602 154.233 C 134.667 176.105,134.652 176.925,134.143 178.635 C 131.413 187.801,119.482 191.113,112.596 184.617 L 111.600 183.677 112.933 182.504 C 114.667 180.977,115.208 180.845,116.318 181.677 C 120.620 184.898,127.041 183.350,129.299 178.547 C 129.869 177.334,129.871 177.250,129.901 154.865 C 129.918 142.509,129.987 132.185,130.054 131.923 C 130.161 131.505,130.447 131.455,132.355 131.523 L 134.533 131.600 134.602 154.233 M335.067 133.059 C 333.517 133.291,333.037 133.629,330.133 136.533 C 329.033 137.633,327.413 139.131,326.533 139.861 C 325.653 140.591,324.873 141.256,324.800 141.340 C 324.535 141.641,316.386 148.435,315.836 148.813 C 313.338 150.530,307.933 156.644,308.454 157.165 C 308.546 157.258,310.286 157.333,312.319 157.333 C 318.230 157.333,321.409 156.022,325.915 151.726 C 326.842 150.842,328.440 149.621,329.467 149.012 C 330.493 148.403,331.573 147.702,331.867 147.455 C 332.160 147.208,333.000 146.665,333.733 146.249 C 334.467 145.834,335.161 145.340,335.277 145.152 C 335.393 144.964,336.120 144.085,336.894 143.198 C 339.769 139.900,340.028 136.667,337.626 134.044 C 336.685 133.016,336.310 132.872,335.067 133.059 M153.167 135.431 C 147.317 136.475,142.602 142.778,142.997 149.026 C 143.731 160.651,157.824 165.741,165.869 157.287 C 167.682 155.381,168.484 153.886,169.197 151.077 C 171.492 142.034,162.939 133.685,153.167 135.431 M232.400 135.366 C 222.757 136.839,218.349 149.415,224.851 156.897 C 226.515 158.811,228.043 159.789,231.413 161.096 C 233.778 162.013,239.332 161.131,242.067 159.404 C 252.898 152.565,248.493 135.827,235.733 135.340 C 234.340 135.287,232.840 135.299,232.400 135.366 M328.770 151.684 C 328.273 152.096,327.113 153.184,326.193 154.100 C 322.466 157.810,313.705 159.918,308.498 158.358 C 306.945 157.893,306.184 158.788,305.175 162.267 C 304.920 163.147,304.363 164.527,303.938 165.333 C 302.765 167.558,302.156 169.205,302.374 169.558 C 302.759 170.180,305.783 170.491,308.510 170.188 C 309.916 170.032,311.247 169.911,311.467 169.919 C 312.530 169.960,316.232 169.547,316.995 169.304 C 317.469 169.152,317.975 169.102,318.121 169.192 C 318.266 169.282,319.078 169.007,319.926 168.581 C 323.954 166.556,326.301 165.309,326.657 165.005 C 326.872 164.822,327.592 164.479,328.257 164.243 C 329.608 163.763,331.992 162.251,332.398 161.614 C 334.630 158.124,334.039 153.279,331.169 151.523 C 329.944 150.775,329.858 150.780,328.770 151.684 M325.482 168.675 C 325.198 168.890,324.714 169.067,324.407 169.067 C 324.100 169.067,323.197 169.487,322.400 170.000 C 321.603 170.513,320.729 170.933,320.458 170.933 C 320.187 170.933,319.730 171.059,319.444 171.212 C 318.471 171.733,311.859 172.364,307.574 172.346 C 305.860 172.339,303.730 171.941,302.075 171.318 L 301.083 170.944 300.157 172.157 C 299.119 173.516,299.148 173.970,300.300 174.372 C 300.735 174.523,301.439 174.896,301.866 175.199 C 302.903 175.938,312.105 176.119,313.467 175.428 C 314.244 175.034,314.723 174.918,319.426 173.985 C 325.118 172.857,326.933 171.829,326.933 169.736 C 326.933 168.136,326.558 167.862,325.482 168.675 " stroke="none" fill="#f6f9fb" fill-rule="evenodd"></path></g></svg>